<svg width="125" height="90" viewBox="0 0 125 90" fill="none" xmlns="http://www.w3.org/2000/svg">
<rect x="0.846429" y="0.846429" width="123.307" height="88.3071" rx="3.15357" fill="white" stroke="#F5F5F5" stroke-width="1.69286"/>
<mask id="mask0" mask-type="alpha" maskUnits="userSpaceOnUse" x="0" y="0" width="125" height="90">
<rect x="0.846429" y="0.846429" width="123.307" height="88.3071" rx="3.15357" fill="white" stroke="white" stroke-width="1.69286"/>
</mask>
<g mask="url(#mask0)">
<rect x="89.2847" width="35.7143" height="90" fill="#FF3131"/>
<path fill-rule="evenodd" clip-rule="evenodd" d="M0 90H35.7143V0H0V90Z" fill="#FF3131"/>
<path fill-rule="evenodd" clip-rule="evenodd" d="M71.0903 42.3416C70.3029 43.1353 68.9645 42.4238 69.1821 41.3271L71.4296 29.9995L65.4772 32.9995L62.5011 23.9995L59.5249 32.9995L53.5725 29.9995L55.82 41.3271C56.0376 42.4238 54.6993 43.1353 53.9118 42.3416L51.3975 39.8071C50.956 39.3621 50.2366 39.3621 49.7951 39.8071L47.6201 41.9995L41.6677 38.9995L44.6439 44.9995L42.4563 47.2047C42.0197 47.6447 42.0197 48.3543 42.4563 48.7943L50.5963 56.9995H59.5249L61.013 65.9995H63.9892L65.4772 56.9995H74.4058L82.5459 48.7943C82.9824 48.3543 82.9824 47.6447 82.5459 47.2047L80.3582 44.9995L83.3344 38.9995L77.382 41.9995L75.207 39.8071C74.7656 39.3621 74.0461 39.3621 73.6046 39.8071L71.0903 42.3416Z" fill="#FF3131"/>
</g>
</svg>
