<svg width="125" height="90" viewBox="0 0 125 90" fill="none" xmlns="http://www.w3.org/2000/svg">
<rect width="125" height="90" rx="4" fill="white"/>
<mask id="mask0" mask-type="alpha" maskUnits="userSpaceOnUse" x="0" y="0" width="125" height="90">
<rect width="125" height="90" rx="4" fill="white"/>
</mask>
<g mask="url(#mask0)">
<rect width="125" height="90" fill="#FF0000"/>
<path fill-rule="evenodd" clip-rule="evenodd" d="M53.5705 53.9995H36.0467C35.8626 53.9995 35.7134 53.8503 35.7134 53.6662V36.3328C35.7134 36.1488 35.8626 35.9995 36.0467 35.9995H53.5705V18.3328C53.5705 18.1488 53.7198 17.9995 53.9039 17.9995H71.0943C71.2784 17.9995 71.4277 18.1488 71.4277 18.3328V35.9995H88.9515C89.1356 35.9995 89.2848 36.1488 89.2848 36.3328V53.6662C89.2848 53.8503 89.1356 53.9995 88.9515 53.9995H71.4277V71.6662C71.4277 71.8503 71.2784 71.9995 71.0943 71.9995H53.9039C53.7198 71.9995 53.5705 71.8503 53.5705 71.6662V53.9995Z" fill="white"/>
</g>
</svg>
