<svg width="125" height="90" viewBox="0 0 125 90" fill="none" xmlns="http://www.w3.org/2000/svg">
<rect width="125" height="90" rx="4" fill="white"/>
<mask id="mask0" mask-type="alpha" maskUnits="userSpaceOnUse" x="0" y="0" width="125" height="90">
<rect width="125" height="90" rx="4" fill="white"/>
</mask>
<g mask="url(#mask0)">
<rect width="125" height="90" fill="#F1361D"/>
<path fill-rule="evenodd" clip-rule="evenodd" d="M44.9685 13.9534L49.2919 14.6964L52.5345 17.6731L53.2716 13.3151L56.2247 10.0466L51.9013 9.30363L48.6587 6.3269L47.9216 10.6849L44.9685 13.9534ZM56.5499 29.1966L60.2964 26.8982L64.681 27.0004L62.4009 23.224L62.5023 18.8043L58.7558 21.1026L54.3712 21.0004L56.6513 24.7769L56.5499 29.1966ZM51.4648 53.8696L47.8002 56.2983L47.7485 51.8778L45.339 48.1838L49.7245 48.1317L53.3892 45.703L53.4408 50.1235L55.8503 53.8175L51.4648 53.8696ZM54.6492 42.4415L59.0083 41.9544L62.9392 43.9149L62.4561 39.521L64.401 35.5586L60.0419 36.0456L56.1109 34.0851L56.5941 38.4791L54.6492 42.4415Z" fill="#FFDC42"/>
<path fill-rule="evenodd" clip-rule="evenodd" d="M29.7619 37.0205L19.2658 44.5628L23.1385 32.1698L12.7788 24.4382L25.6684 24.3212L29.7619 12.0005L33.8554 24.3212L46.7451 24.4382L36.3854 32.1698L40.2581 44.5628L29.7619 37.0205Z" fill="#FFDC42"/>
</g>
</svg>
