<svg width="125" height="90" viewBox="0 0 125 90" fill="none" xmlns="http://www.w3.org/2000/svg">
<rect x="0.9" y="0.9" width="123.2" height="88.2" rx="3.1" fill="white" stroke="#F5F5F5" stroke-width="1.8"/>
<mask id="mask0" mask-type="alpha" maskUnits="userSpaceOnUse" x="0" y="0" width="125" height="90">
<rect x="0.9" y="0.9" width="123.2" height="88.2" rx="3.1" fill="white" stroke="white" stroke-width="1.8"/>
</mask>
<g mask="url(#mask0)">
<path fill-rule="evenodd" clip-rule="evenodd" d="M89.2857 15C90.9078 14.1824 92.5631 16.0446 91.561 17.5597L89.5504 20.5997C89.3756 20.8639 89.1503 21.091 88.8873 21.2677L80.5546 26.8672C80.4233 26.9555 80.3009 27.0566 80.1895 27.169L79.0578 28.3097C78.1295 29.2454 78.1295 30.7546 79.0578 31.6903L81.6564 34.3097C82.5847 35.2454 82.5847 36.7546 81.6564 37.6903L78.6084 40.7626C77.8764 41.5005 76.7526 41.6833 75.8245 41.2156L73.5854 40.0871C72.3964 39.4878 70.9469 39.971 70.3552 41.1638L68.8946 44.1084C68.6114 44.6792 68.1129 45.114 67.5089 45.317L59.8957 47.875C59.6494 47.9578 59.3912 48 59.1313 48H55.0599C54.1481 48 53.3151 48.5167 52.9099 49.3335L51.6685 51.8362C51.0768 53.029 49.6273 53.5122 48.4383 52.9129L39.0391 48.1757C38.8082 48.0593 38.5976 47.9064 38.4154 47.7228L33.4342 42.7018C32.9883 42.2522 32.738 41.6447 32.738 41.0115V38.101C32.738 36.9407 33.6787 36 34.8391 36V36C35.3992 36 35.9361 35.7763 36.3306 35.3787L40.9625 30.7097C41.4131 30.2555 42.0265 30 42.6663 30H45.8848C46.92 30 47.8385 29.3363 48.1635 28.3535L49.9274 23.0195C50.3085 21.8669 51.4903 21.1805 52.6803 21.4204L64.9429 23.8925C65.2939 23.9633 65.6564 23.9546 66.0036 23.8671L77.1239 21.0648C77.2947 21.0217 77.4603 20.96 77.6176 20.8807L83.3333 18L89.2857 15V15Z" fill="#E7832C"/>
<path fill-rule="evenodd" clip-rule="evenodd" d="M62.5008 72.0005C64.1446 72.0005 65.477 70.6573 65.477 69.0005C65.477 67.3436 64.1446 66.0005 62.5008 66.0005C60.8571 66.0005 59.5247 67.3436 59.5247 69.0005C59.5247 70.6573 60.8571 72.0005 62.5008 72.0005Z" fill="#445128"/>
<path opacity="0.75" d="M71.4285 66C71.4285 66 80.357 63 83.3332 57" stroke="#445128" stroke-width="4.8" stroke-linecap="round"/>
<path opacity="0.75" d="M53.5715 66C53.5715 66 44.643 63 41.6668 57" stroke="#445128" stroke-width="4.8" stroke-linecap="round"/>
</g>
</svg>
