<svg width="125" height="90" viewBox="0 0 125 90" fill="none" xmlns="http://www.w3.org/2000/svg">
<rect x="0.875" y="0.875" width="123.25" height="88.25" rx="3.125" fill="white" stroke="#F5F5F5" stroke-width="1.75"/>
<mask id="mask0" mask-type="alpha" maskUnits="userSpaceOnUse" x="0" y="0" width="125" height="90">
<rect x="0.875" y="0.875" width="123.25" height="88.25" rx="3.125" fill="white" stroke="white" stroke-width="1.75"/>
</mask>
<g mask="url(#mask0)">
<path fill-rule="evenodd" clip-rule="evenodd" d="M0 30H125V0H0V30Z" fill="#FFA44A"/>
<path fill-rule="evenodd" clip-rule="evenodd" d="M0 89.9995H125V59.9995H0V89.9995Z" fill="#1A9F0B"/>
<path d="M62.5001 55.1667C68.0843 55.1667 72.5953 50.6061 72.5953 45C72.5953 39.3939 68.0843 34.8333 62.5001 34.8333C56.9159 34.8333 52.4049 39.3939 52.4049 45C52.4049 50.6061 56.9159 55.1667 62.5001 55.1667Z" fill="#181A93" fill-opacity="0.15" stroke="#181A93" stroke-width="2.33333"/>
<path fill-rule="evenodd" clip-rule="evenodd" d="M62.5018 47.9998C64.1455 47.9998 65.478 46.6566 65.478 44.9998C65.478 43.3429 64.1455 41.9998 62.5018 41.9998C60.8581 41.9998 59.5256 43.3429 59.5256 44.9998C59.5256 46.6566 60.8581 47.9998 62.5018 47.9998Z" fill="#181A93"/>
</g>
</svg>
