<svg width="125" height="90" viewBox="0 0 125 90" fill="none" xmlns="http://www.w3.org/2000/svg">
<rect x="0.821428" y="0.821428" width="123.357" height="88.3571" rx="3.17857" fill="white" stroke="#F5F5F5" stroke-width="1.64286"/>
<mask id="mask0" mask-type="alpha" maskUnits="userSpaceOnUse" x="0" y="0" width="125" height="90">
<rect x="0.821428" y="0.821428" width="123.357" height="88.3571" rx="3.17857" fill="white" stroke="white" stroke-width="1.64286"/>
</mask>
<g mask="url(#mask0)">
<path fill-rule="evenodd" clip-rule="evenodd" d="M65.4761 90H125V0H65.4761V90Z" fill="#DE233C"/>
<mask id="path-4-outside-1" maskUnits="userSpaceOnUse" x="8.90479" y="8.99951" width="24" height="24" fill="black">
<rect fill="white" x="8.90479" y="8.99951" width="24" height="24"/>
<path fill-rule="evenodd" clip-rule="evenodd" d="M23.811 11.9995H17.8586V18.0001H11.9048V24.0001H17.8586V29.9995H23.811V24.0001H29.7619V18.0001H23.811V11.9995Z"/>
</mask>
<path fill-rule="evenodd" clip-rule="evenodd" d="M23.811 11.9995H17.8586V18.0001H11.9048V24.0001H17.8586V29.9995H23.811V24.0001H29.7619V18.0001H23.811V11.9995Z" fill="#CCCCCD"/>
<path d="M17.8586 11.9995V9.80904H15.6681V11.9995H17.8586ZM23.811 11.9995H26.0015V9.80904H23.811V11.9995ZM17.8586 18.0001V20.1905H20.0491V18.0001H17.8586ZM11.9048 18.0001V15.8096H9.71431V18.0001H11.9048ZM11.9048 24.0001H9.71431V26.1905H11.9048V24.0001ZM17.8586 24.0001H20.0491V21.8096H17.8586V24.0001ZM17.8586 29.9995H15.6681V32.19H17.8586V29.9995ZM23.811 29.9995V32.19H26.0015V29.9995H23.811ZM23.811 24.0001V21.8096H21.6205V24.0001H23.811ZM29.7619 24.0001V26.1905H31.9524V24.0001H29.7619ZM29.7619 18.0001H31.9524V15.8096H29.7619V18.0001ZM23.811 18.0001H21.6205V20.1905H23.811V18.0001ZM17.8586 14.19H23.811V9.80904H17.8586V14.19ZM20.0491 18.0001V11.9995H15.6681V18.0001H20.0491ZM11.9048 20.1905H17.8586V15.8096H11.9048V20.1905ZM14.0953 24.0001V18.0001H9.71431V24.0001H14.0953ZM17.8586 21.8096H11.9048V26.1905H17.8586V21.8096ZM20.0491 29.9995V24.0001H15.6681V29.9995H20.0491ZM23.811 27.809H17.8586V32.19H23.811V27.809ZM21.6205 24.0001V29.9995H26.0015V24.0001H21.6205ZM29.7619 21.8096H23.811V26.1905H29.7619V21.8096ZM27.5715 18.0001V24.0001H31.9524V18.0001H27.5715ZM23.811 20.1905H29.7619V15.8096H23.811V20.1905ZM21.6205 11.9995V18.0001H26.0015V11.9995H21.6205Z" fill="#7B716A" fill-opacity="0.66" mask="url(#path-4-outside-1)"/>
<path fill-rule="evenodd" clip-rule="evenodd" d="M20.8343 23.9995C22.478 23.9995 23.8105 22.6564 23.8105 20.9995C23.8105 19.3427 22.478 17.9995 20.8343 17.9995C19.1906 17.9995 17.8582 19.3427 17.8582 20.9995C17.8582 22.6564 19.1906 23.9995 20.8343 23.9995Z" fill="#7B716A"/>
</g>
</svg>
