<svg width="125" height="90" viewBox="0 0 125 90" fill="none" xmlns="http://www.w3.org/2000/svg">
<rect width="125" height="90" rx="4" fill="white"/>
<mask id="mask0" mask-type="alpha" maskUnits="userSpaceOnUse" x="0" y="0" width="125" height="90">
<rect width="125" height="90" rx="4" fill="white"/>
</mask>
<g mask="url(#mask0)">
<rect width="125" height="90" fill="#0A17A7"/>
<path d="M0 -1.02381H-2.75096L-0.669344 0.774703L19.8095 18.4684V23.4756L-0.598217 38.1691L-1.02381 38.4756V39V42V43.855L0.545729 42.8662L24.1051 28.0238H29.4317L49.7382 42.6445C50.0807 42.8911 50.4921 43.0238 50.9142 43.0238C52.7789 43.0238 53.6411 40.7072 52.2301 39.4881L33.7619 23.5316V18.5244L53.7441 4.13728C54.2785 3.75249 54.5952 3.13413 54.5952 2.47557V0V-1.85505L53.0257 -0.866237L29.4663 13.9762H24.1398L3.57441 -0.830857L3.30642 -1.02381H2.97619H0Z" fill="#FF2E3B" stroke="white" stroke-width="2.04762"/>
<path fill-rule="evenodd" clip-rule="evenodd" d="M0 15V27H20.8333V42.9524C20.8333 44.0833 21.7501 45 22.881 45H30.6905C31.8213 45 32.7381 44.0832 32.7381 42.9524V27H54.5C55.6309 27 56.5476 26.0832 56.5476 24.9524V17.0476C56.5476 15.9168 55.6309 15 54.5 15H32.7381V0H20.8333V15H0Z" fill="white"/>
<path fill-rule="evenodd" clip-rule="evenodd" d="M0 18H23.8095V15V0H29.7619V15V18H53.5714V24H29.7619V27V42H23.8095V27V24H0V18Z" fill="#FF2E3B"/>
<path fill-rule="evenodd" clip-rule="evenodd" d="M89.2856 78.0005L85.0767 79.2431L86.3094 75.0005L85.0767 70.7578L89.2856 72.0005L93.4946 70.7578L92.2618 75.0005L93.4946 79.2431L89.2856 78.0005Z" fill="#CA1931"/>
<path fill-rule="evenodd" clip-rule="evenodd" d="M89.2856 20.999L85.0767 22.2417L86.3094 17.999L85.0767 13.7564L89.2856 14.999L93.4946 13.7564L92.2618 17.999L93.4946 22.2417L89.2856 20.999Z" fill="#CA1931"/>
<path fill-rule="evenodd" clip-rule="evenodd" d="M107.142 38.999L102.933 40.2417L104.166 35.999L102.933 31.7564L107.142 32.999L111.351 31.7564L110.118 35.999L111.351 40.2417L107.142 38.999Z" fill="#CA1931"/>
<path fill-rule="evenodd" clip-rule="evenodd" d="M71.4275 45L67.2185 46.2426L68.4513 42L67.2185 37.7574L71.4275 39L75.6364 37.7574L74.4037 42L75.6364 46.2426L71.4275 45Z" fill="#CA1931"/>
</g>
</svg>
