<svg width="125" height="90" viewBox="0 0 125 90" fill="none" xmlns="http://www.w3.org/2000/svg">
<rect x="0.653571" y="0.653571" width="123.693" height="88.6929" rx="3.34643" fill="white" stroke="#F5F5F5" stroke-width="1.30714"/>
<mask id="mask0" mask-type="alpha" maskUnits="userSpaceOnUse" x="0" y="0" width="125" height="90">
<rect x="0.653571" y="0.653571" width="123.693" height="88.6929" rx="3.34643" fill="white" stroke="white" stroke-width="1.30714"/>
</mask>
<g mask="url(#mask0)">
<path fill-rule="evenodd" clip-rule="evenodd" d="M0 48H125V0H0V48Z" fill="#E12237"/>
<path fill-rule="evenodd" clip-rule="evenodd" d="M29.7619 42C33.981 42 37.8583 40.5251 40.9141 38.059C39.2956 38.6674 37.5437 39 35.7148 39C27.4962 39 20.8338 32.2843 20.8338 24C20.8338 15.7157 27.4962 9 35.7148 9C37.5437 9 39.2956 9.33259 40.9141 9.94103C37.8583 7.47487 33.981 6 29.7619 6C19.8997 6 11.9048 14.0589 11.9048 24C11.9048 33.9411 19.8997 42 29.7619 42ZM35.7138 21.0005C35.7138 22.6573 34.3813 24.0005 32.7376 24.0005C31.0939 24.0005 29.7614 22.6573 29.7614 21.0005C29.7614 19.3436 31.0939 18.0005 32.7376 18.0005C34.3813 18.0005 35.7138 19.3436 35.7138 21.0005ZM38.6919 36.002C40.3356 36.002 41.6681 34.6588 41.6681 33.002C41.6681 31.3451 40.3356 30.002 38.6919 30.002C37.0482 30.002 35.7157 31.3451 35.7157 33.002C35.7157 34.6588 37.0482 36.002 38.6919 36.002ZM53.57 33.002C53.57 34.6588 52.2375 36.002 50.5938 36.002C48.9501 36.002 47.6176 34.6588 47.6176 33.002C47.6176 31.3451 48.9501 30.002 50.5938 30.002C52.2375 30.002 53.57 31.3451 53.57 33.002ZM56.5491 24.0005C58.1928 24.0005 59.5253 22.6573 59.5253 21.0005C59.5253 19.3436 58.1928 18.0005 56.5491 18.0005C54.9054 18.0005 53.5729 19.3436 53.5729 21.0005C53.5729 22.6573 54.9054 24.0005 56.5491 24.0005ZM47.6186 12C47.6186 13.6569 46.2861 15 44.6424 15C42.9987 15 41.6662 13.6569 41.6662 12C41.6662 10.3431 42.9987 9 44.6424 9C46.2861 9 47.6186 10.3431 47.6186 12Z" fill="white"/>
</g>
</svg>
