<svg width="125" height="90" viewBox="0 0 125 90" fill="none" xmlns="http://www.w3.org/2000/svg">
<rect x="0.642857" y="0.642857" width="123.714" height="88.7143" rx="4.5" fill="white" stroke="#F5F5F5" stroke-width="1.28571"/>
<mask id="mask0" mask-type="alpha" maskUnits="userSpaceOnUse" x="0" y="0" width="125" height="90">
<rect x="0.642857" y="0.642857" width="123.714" height="88.7143" rx="4.5" fill="white" stroke="white" stroke-width="1.28571"/>
</mask>
<g mask="url(#mask0)">
<path fill-rule="evenodd" clip-rule="evenodd" d="M0 60H125V30H41.2678V24C41.2678 24 37.07 21 32.7381 21C28.4062 21 23.8095 24 23.8095 24V30H0V60ZM38.6905 35.9995C38.6905 39.3132 36.0255 41.9995 32.7381 41.9995C29.4507 41.9995 26.7857 39.3132 26.7857 35.9995C26.7857 32.6858 29.4507 29.9995 32.7381 29.9995C36.0255 29.9995 38.6905 32.6858 38.6905 35.9995Z" fill="#0C47B7"/>
<g filter="url(#filter0_d)">
<path fill-rule="evenodd" clip-rule="evenodd" d="M0 90.0007H125V60.0007H0V90.0007Z" fill="#E53B35"/>
</g>
</g>
<defs>
<filter id="filter0_d" x="0" y="60.0007" width="125" height="30" filterUnits="userSpaceOnUse" color-interpolation-filters="sRGB">
<feFlood flood-opacity="0" result="BackgroundImageFix"/>
<feColorMatrix in="SourceAlpha" type="matrix" values="0 0 0 0 0 0 0 0 0 0 0 0 0 0 0 0 0 0 127 0"/>
<feOffset/>
<feColorMatrix type="matrix" values="0 0 0 0 0 0 0 0 0 0 0 0 0 0 0 0 0 0 0.06 0"/>
<feBlend mode="normal" in2="BackgroundImageFix" result="effect1_dropShadow"/>
<feBlend mode="normal" in="SourceGraphic" in2="effect1_dropShadow" result="shape"/>
</filter>
</defs>
</svg>
