<svg width="125" height="90" viewBox="0 0 125 90" fill="none" xmlns="http://www.w3.org/2000/svg">
<rect x="0.642857" y="0.642857" width="123.714" height="88.7143" rx="4.5" fill="white" stroke="#F5F5F5" stroke-width="1.28571"/>
<mask id="mask0" mask-type="alpha" maskUnits="userSpaceOnUse" x="0" y="0" width="125" height="90">
<rect x="0.642857" y="0.642857" width="123.714" height="88.7143" rx="4.5" fill="white" stroke="white" stroke-width="1.28571"/>
</mask>
<g mask="url(#mask0)">
<path fill-rule="evenodd" clip-rule="evenodd" d="M0 59.9995H125V29.9995H0V59.9995Z" fill="#0C47B7"/>
<path fill-rule="evenodd" clip-rule="evenodd" d="M0 90.0007H125V60.0007H0V90.0007Z" fill="#E53B35"/>
<path d="M60.6872 16.2867H28.5973C25.8332 16.2867 23.5635 18.4714 23.4581 21.2335L22.1587 55.2883C22.0991 56.85 22.753 58.3541 23.9356 59.3759L40.1592 73.3931C42.734 75.6177 46.5506 75.6177 49.1253 73.3931L65.3489 59.3759C66.5315 58.3541 67.1854 56.85 67.1258 55.2883L65.8264 21.2335C65.721 18.4714 63.4513 16.2867 60.6872 16.2867Z" fill="#F73744" stroke="white" stroke-width="3.42857"/>
<mask id="mask1" mask-type="alpha" maskUnits="userSpaceOnUse" x="20" y="14" width="49" height="63">
<path d="M60.6872 16.2867H28.5973C25.8332 16.2867 23.5635 18.4714 23.4581 21.2335L22.1587 55.2883C22.0991 56.85 22.753 58.3541 23.9356 59.3759L40.1592 73.3931C42.734 75.6177 46.5506 75.6177 49.1253 73.3931L65.3489 59.3759C66.5315 58.3541 67.1854 56.85 67.1258 55.2883L65.8264 21.2335C65.721 18.4714 63.4513 16.2867 60.6872 16.2867Z" fill="white" stroke="white" stroke-width="3.42857"/>
</mask>
<g mask="url(#mask1)">
<path fill-rule="evenodd" clip-rule="evenodd" d="M41.6676 48.8581C41.6676 48.3847 41.2838 48.001 40.8104 48.001H33.5962C33.1228 48.001 32.739 47.6172 32.739 47.1438V42.8581C32.739 42.3847 33.1228 42.001 33.5962 42.001H40.8104C41.2838 42.001 41.6676 41.6172 41.6676 41.1438V36.8581C41.6676 36.3847 41.2838 36.001 40.8104 36.001H36.5723C36.099 36.001 35.7152 35.6172 35.7152 35.1438V30.8581C35.7152 30.3847 36.099 30.001 36.5723 30.001H40.8104C41.2838 30.001 41.6676 29.6172 41.6676 29.1438V24.8581C41.6676 24.3847 42.0513 24.001 42.5247 24.001H46.7628C47.2362 24.001 47.62 24.3847 47.62 24.8581V29.1438C47.62 29.6172 48.0037 30.001 48.4771 30.001H52.7152C53.1886 30.001 53.5723 30.3847 53.5723 30.8581V35.1438C53.5723 35.6172 53.1886 36.001 52.7152 36.001H48.4771C48.0037 36.001 47.62 36.3847 47.62 36.8581V41.1438C47.62 41.6172 48.0037 42.001 48.4771 42.001H55.6914C56.1648 42.001 56.5485 42.3847 56.5485 42.8581V47.1438C56.5485 47.6172 56.1648 48.001 55.6914 48.001H48.4771C48.0037 48.001 47.62 48.3847 47.62 48.8581V59.1438C47.62 59.6172 47.2362 60.001 46.7628 60.001H42.5247C42.0513 60.001 41.6676 59.6172 41.6676 59.1438V48.8581Z" fill="white"/>
<path fill-rule="evenodd" clip-rule="evenodd" d="M39.2693 60.4144C32.0334 61.5639 26.7866 64.973 26.7866 68.9996C26.7866 73.9702 34.7815 77.9996 44.6438 77.9996C54.506 77.9996 62.5009 73.9702 62.5009 68.9996C62.5009 64.9724 57.2527 61.563 50.0152 60.4139C49.0571 58.3945 47.0113 56.9995 44.6424 56.9995C42.2732 56.9995 40.2274 58.3947 39.2693 60.4144Z" fill="#1251A1"/>
</g>
</g>
</svg>
