<svg width="125" height="90" viewBox="0 0 125 90" fill="none" xmlns="http://www.w3.org/2000/svg">
<rect width="125" height="90" rx="5.14286" fill="white"/>
<mask id="mask0" mask-type="alpha" maskUnits="userSpaceOnUse" x="0" y="0" width="125" height="90">
<rect width="125" height="90" rx="5.14286" fill="white"/>
</mask>
<g mask="url(#mask0)">
<path fill-rule="evenodd" clip-rule="evenodd" d="M125 0H0V6H125V0ZM125 11.9996H0V17.9996H125V11.9996ZM0 24.001H125V30.001H0V24.001ZM125 35.9998H0V41.9998H125V35.9998ZM0 47.9994H125V53.9994H0V47.9994ZM125 60.0007H0V66.0007H125V60.0007ZM0 72.0004H125V78.0004H0V72.0004ZM125 83.9991H0V89.9991H125V83.9991Z" fill="#D02F44"/>
<rect width="53.5714" height="42" fill="#46467F"/>
<g filter="url(#filter0_d)">
<path fill-rule="evenodd" clip-rule="evenodd" d="M23.8088 9.00049C23.8088 10.6573 22.4763 12.0005 20.8326 12.0005C19.1889 12.0005 17.8564 10.6573 17.8564 9.00049C17.8564 7.34363 19.1889 6.00049 20.8326 6.00049C22.4763 6.00049 23.8088 7.34363 23.8088 9.00049ZM11.9048 9.00063C11.9048 10.6575 10.5723 12.0006 8.92858 12.0006C7.28488 12.0006 5.95239 10.6575 5.95239 9.00063C5.95239 7.34377 7.28488 6.00063 8.92858 6.00063C10.5723 6.00063 11.9048 7.34377 11.9048 9.00063ZM32.7393 12.0005C34.383 12.0005 35.7155 10.6573 35.7155 9.00049C35.7155 7.34363 34.383 6.00049 32.7393 6.00049C31.0956 6.00049 29.7631 7.34363 29.7631 9.00049C29.7631 10.6573 31.0956 12.0005 32.7393 12.0005ZM47.6193 9.00049C47.6193 10.6573 46.2868 12.0005 44.6431 12.0005C42.9994 12.0005 41.6669 10.6573 41.6669 9.00049C41.6669 7.34363 42.9994 6.00049 44.6431 6.00049C46.2868 6.00049 47.6193 7.34363 47.6193 9.00049ZM14.8812 18.0015C16.5249 18.0015 17.8574 16.6583 17.8574 15.0015C17.8574 13.3446 16.5249 12.0015 14.8812 12.0015C13.2375 12.0015 11.905 13.3446 11.905 15.0015C11.905 16.6583 13.2375 18.0015 14.8812 18.0015ZM29.7631 15.0015C29.7631 16.6583 28.4306 18.0015 26.7869 18.0015C25.1432 18.0015 23.8107 16.6583 23.8107 15.0015C23.8107 13.3446 25.1432 12.0015 26.7869 12.0015C28.4306 12.0015 29.7631 13.3446 29.7631 15.0015ZM38.6907 18.0015C40.3344 18.0015 41.6669 16.6583 41.6669 15.0015C41.6669 13.3446 40.3344 12.0015 38.6907 12.0015C37.047 12.0015 35.7145 13.3446 35.7145 15.0015C35.7145 16.6583 37.047 18.0015 38.6907 18.0015ZM47.6193 21C47.6193 22.6569 46.2868 24 44.6431 24C42.9994 24 41.6669 22.6569 41.6669 21C41.6669 19.3431 42.9994 18 44.6431 18C46.2868 18 47.6193 19.3431 47.6193 21ZM32.7393 24C34.383 24 35.7155 22.6569 35.7155 21C35.7155 19.3431 34.383 18 32.7393 18C31.0956 18 29.7631 19.3431 29.7631 21C29.7631 22.6569 31.0956 24 32.7393 24ZM23.8088 21C23.8088 22.6569 22.4763 24 20.8326 24C19.1889 24 17.8564 22.6569 17.8564 21C17.8564 19.3431 19.1889 18 20.8326 18C22.4763 18 23.8088 19.3431 23.8088 21ZM8.92858 24.0001C10.5723 24.0001 11.9048 22.657 11.9048 21.0001C11.9048 19.3433 10.5723 18.0001 8.92858 18.0001C7.28488 18.0001 5.95239 19.3433 5.95239 21.0001C5.95239 22.657 7.28488 24.0001 8.92858 24.0001ZM17.8574 27.0005C17.8574 28.6573 16.5249 30.0005 14.8812 30.0005C13.2375 30.0005 11.905 28.6573 11.905 27.0005C11.905 25.3436 13.2375 24.0005 14.8812 24.0005C16.5249 24.0005 17.8574 25.3436 17.8574 27.0005ZM26.7869 30.0005C28.4306 30.0005 29.7631 28.6573 29.7631 27.0005C29.7631 25.3436 28.4306 24.0005 26.7869 24.0005C25.1432 24.0005 23.8107 25.3436 23.8107 27.0005C23.8107 28.6573 25.1432 30.0005 26.7869 30.0005ZM41.6669 27.0005C41.6669 28.6573 40.3344 30.0005 38.6907 30.0005C37.047 30.0005 35.7145 28.6573 35.7145 27.0005C35.7145 25.3436 37.047 24.0005 38.6907 24.0005C40.3344 24.0005 41.6669 25.3436 41.6669 27.0005ZM44.6431 36.0015C46.2868 36.0015 47.6193 34.6583 47.6193 33.0015C47.6193 31.3446 46.2868 30.0015 44.6431 30.0015C42.9994 30.0015 41.6669 31.3446 41.6669 33.0015C41.6669 34.6583 42.9994 36.0015 44.6431 36.0015ZM35.7155 33.0015C35.7155 34.6583 34.383 36.0015 32.7393 36.0015C31.0956 36.0015 29.7631 34.6583 29.7631 33.0015C29.7631 31.3446 31.0956 30.0015 32.7393 30.0015C34.383 30.0015 35.7155 31.3446 35.7155 33.0015ZM20.8326 36.0015C22.4763 36.0015 23.8088 34.6583 23.8088 33.0015C23.8088 31.3446 22.4763 30.0015 20.8326 30.0015C19.1889 30.0015 17.8564 31.3446 17.8564 33.0015C17.8564 34.6583 19.1889 36.0015 20.8326 36.0015ZM11.9048 33.0015C11.9048 34.6583 10.5723 36.0015 8.92858 36.0015C7.28488 36.0015 5.95239 34.6583 5.95239 33.0015C5.95239 31.3446 7.28488 30.0015 8.92858 30.0015C10.5723 30.0015 11.9048 31.3446 11.9048 33.0015Z" fill="url(#paint0_linear)"/>
</g>
</g>
<defs>
<filter id="filter0_d" x="5.95239" y="6.00049" width="41.6669" height="32.5724" filterUnits="userSpaceOnUse" color-interpolation-filters="sRGB">
<feFlood flood-opacity="0" result="BackgroundImageFix"/>
<feColorMatrix in="SourceAlpha" type="matrix" values="0 0 0 0 0 0 0 0 0 0 0 0 0 0 0 0 0 0 127 0"/>
<feOffset dy="2.57143"/>
<feColorMatrix type="matrix" values="0 0 0 0 0 0 0 0 0 0 0 0 0 0 0 0 0 0 0.06 0"/>
<feBlend mode="normal" in2="BackgroundImageFix" result="effect1_dropShadow"/>
<feBlend mode="normal" in="SourceGraphic" in2="effect1_dropShadow" result="shape"/>
</filter>
<linearGradient id="paint0_linear" x1="5.95239" y1="6.00049" x2="5.95239" y2="36.0015" gradientUnits="userSpaceOnUse">
<stop stop-color="white"/>
<stop offset="1" stop-color="#F0F0F0"/>
</linearGradient>
</defs>
</svg>
